<svg width="278" height="39" viewBox="0 0 278 39" fill="none" xmlns="http://www.w3.org/2000/svg">
<g clip-path="url(#clip0_32_16)">
<path d="M43.01 0H85.463C89.9259 0 93.3705 0.87471 95.8066 2.62413C98.2428 4.37355 99.4509 6.84687 99.4509 10.0541C99.4509 12.4068 98.762 14.3674 97.3941 15.9358C96.0263 17.5043 94.0594 18.6002 91.4934 19.2235C94.2391 19.8871 96.3358 21.0232 97.8035 22.652C99.2612 24.2707 100 26.3217 100 28.785C100 32.0224 98.762 34.536 96.2958 36.3256C93.8297 38.1152 90.3053 39 85.7325 39H43V0H43.01ZM78.7735 15.6342C81.1897 15.6342 82.3978 14.7092 82.3978 12.8693C82.3978 11.0294 81.1897 10.0541 78.7735 10.0541H59.3043V15.6342H78.7735ZM78.7735 28.9459C81.3694 28.9459 82.6674 27.9304 82.6674 25.9095C82.6674 23.8886 81.3694 22.8732 78.7735 22.8732H59.3043V28.9459H78.7735Z" fill="#1A1A1A"/>
<path d="M120.406 0H144.594L167 39H149.704L146.203 32.7061H118.129L114.628 39H98L120.406 0ZM141.153 23.1446L134.089 10.5468H130.253L123.189 23.1446H141.143H141.153Z" fill="#1A1A1A"/>
<path d="M166.01 28.0181H200.542C201.707 28.0181 202.614 27.8069 203.251 27.3845C203.888 26.9621 204.207 26.3486 204.207 25.534C204.207 24.7194 203.878 24.1563 203.221 23.7138C202.564 23.2713 201.667 23.05 200.542 23.05H183.689C177.962 23.05 173.58 22.0645 170.562 20.0933C167.534 18.1222 166.02 15.2762 166.02 11.5552C166.02 7.83419 167.534 4.97808 170.562 2.98685C173.59 0.995616 177.962 0 183.689 0H220.293V10.992H186.418C184.008 10.992 182.803 11.7865 182.803 13.3654C182.803 14.0694 183.122 14.6325 183.759 15.0549C184.396 15.4773 185.283 15.6885 186.408 15.6885H203.211C208.978 15.6885 213.38 16.6841 216.428 18.6753C219.476 20.6666 221 23.5529 221 27.3443C221 31.1356 219.476 33.9817 216.428 35.993C213.38 38.0044 208.978 39 203.211 39H166V28.008L166.01 28.0181Z" fill="#1A1A1A"/>
<path d="M225 0H278V10.0567H240.92V15.1957H277.443V23.3718H240.92V24.639C240.92 26.228 241.376 27.3342 242.288 27.9778C243.2 28.6215 244.751 28.9433 246.94 28.9433H278V39H242.207C238.093 39 234.769 38.5173 232.246 37.5619C229.722 36.6065 227.888 35.0678 226.733 32.9458C225.578 30.8239 225.01 28.0784 225.01 24.6893V0H225Z" fill="#1A1A1A"/>
<path fill-rule="evenodd" clip-rule="evenodd" d="M0 0H39V39H0V0ZM13.1719 23.2765C13.2466 23.2635 13.323 23.2503 13.3978 23.25C13.4752 23.2501 13.5539 23.2539 13.67 23.37C13.91 23.68 13.08 24.2 12.84 24.28C12.25 24.52 11.61 24.52 11.02 24.36C10.07 24.12 9.63003 23.48 9.61003 22.41V16.93C9.36003 16.93 9.16003 16.93 9.16003 16.57C9.16003 16.33 9.24004 16.21 9.56003 16.01L12.02 14.54C12.26 14.38 12.61 14.3 12.61 14.7V16.21H13.33C13.57 16.21 13.65 16.37 13.65 16.57C13.65 16.77 13.57 16.93 13.33 16.94H12.61V22.57C12.61 22.61 12.6056 22.65 12.6011 22.69C12.5923 22.77 12.5834 22.85 12.61 22.93C12.7017 23.3579 12.9276 23.3187 13.1719 23.2765ZM13.3978 23.25L13.4 23.25H13.39L13.3978 23.25ZM19.63 16.3501C20.86 16.9101 21.42 17.9401 21.42 19.2601H21.41C21.41 19.6601 21.33 19.7401 20.93 19.7401H16.67C16.8649 20.588 17.0219 20.8755 17.2519 21.2969L17.27 21.3301C17.83 22.4901 18.99 22.9301 20.26 22.6901C20.3267 22.6767 20.3933 22.6589 20.46 22.6412L20.46 22.6412L20.46 22.6412C20.5934 22.6056 20.7267 22.5701 20.86 22.5701H20.94C21.14 22.6101 21.26 22.8101 21.18 22.9701C21.14 22.9701 21.14 23.0101 21.14 23.0101C20.58 23.7301 19.83 24.2101 18.95 24.3701C17.68 24.6101 16.45 24.4101 15.41 23.5701C14.26 22.6101 13.78 21.3401 13.9 19.8601C14.02 18.1401 14.86 16.9101 16.49 16.2701C17.52 15.8701 18.59 15.8701 19.63 16.3501ZM18.39 19.0201C18.67 19.0201 18.83 18.8601 18.83 18.5801C18.87 18.0201 18.83 17.5101 18.55 16.9901C18.19 16.3101 17.56 16.2701 17.16 16.9501C16.76 17.5901 16.68 18.3101 16.68 19.0201H18.39ZM29.77 24.0101C29.72 23.8351 29.6543 23.7226 29.6024 23.6335C29.5712 23.5801 29.545 23.5351 29.53 23.4901C29.49 23.2901 29.45 23.0501 29.45 22.8501C29.43 22.1751 29.42 21.5001 29.41 20.8251C29.4 20.1501 29.39 19.4751 29.37 18.8001C29.33 17.5301 28.7 16.6601 27.51 16.3001C26.28 15.9401 25.09 15.9401 23.86 16.3801C23.38 16.5401 22.95 16.8201 22.71 17.2901C22.47 17.7301 22.51 18.2001 22.79 18.5601C23.19 19.0401 23.74 19.0401 24.26 18.9201C24.66 18.8401 24.89 18.4801 24.93 18.0101L24.93 18.0095C24.97 17.7297 25.01 17.4499 25.05 17.1801C25.13 16.7801 25.37 16.5401 25.76 16.5401C26.12 16.5401 26.32 16.7401 26.39 17.1801C26.41 17.4201 26.42 17.6676 26.43 17.9151C26.44 18.1626 26.45 18.4101 26.47 18.6501C26.5319 19.2929 25.3581 19.5818 24.584 19.7724C24.3587 19.8278 24.1672 19.875 24.05 19.9201C23.34 20.1601 22.7 20.5201 22.27 21.1501C21.52 22.2201 21.79 23.6901 22.86 24.2501C24.09 24.8901 25.91 24.6501 26.67 23.1401C26.91 23.7001 27.26 24.0901 27.82 24.2501C28.0754 24.3231 28.3559 24.3627 28.6158 24.3995L28.69 24.4101C29.01 24.4501 30.12 24.5701 29.76 24.0101H29.77ZM26.48 22.0201C26.48 22.4601 26.04 22.8101 25.61 22.7701C25.17 22.7301 24.9 22.4501 24.86 21.9801C24.82 21.6201 24.94 21.2701 25.14 20.9901C25.5 20.5101 25.93 20.2001 26.49 19.8801C26.49 20.1164 26.4944 20.3538 26.4988 20.5915C26.5077 21.0682 26.5167 21.5464 26.49 22.0201H26.48Z" fill="#1A1A1A"/>
</g>
<defs>
<clipPath id="clip0_32_16">
<rect width="277.59" height="39" fill="white"/>
</clipPath>
</defs>
</svg>
