<svg width="39" height="39" viewBox="0 0 39 39" fill="none" xmlns="http://www.w3.org/2000/svg">
<path d="M34 0H5C2.23858 0 0 2.23858 0 5V34C0 36.7614 2.23858 39 5 39H34C36.7614 39 39 36.7614 39 34V5C39 2.23858 36.7614 0 34 0Z" fill="#AD7FA8"/>
<path d="M13.3999 23.25C13.0799 23.25 12.7299 23.49 12.6099 22.93C12.5699 22.81 12.6099 22.69 12.6099 22.57V16.94H13.3299C13.5699 16.93 13.6499 16.77 13.6499 16.57C13.6499 16.37 13.5699 16.21 13.3299 16.21H12.6099V14.7C12.6099 14.3 12.2599 14.38 12.0199 14.54L9.55991 16.01C9.23991 16.21 9.15991 16.33 9.15991 16.57C9.15991 16.93 9.35991 16.93 9.60991 16.93V22.41C9.62991 23.48 10.0699 24.12 11.0199 24.36C11.6099 24.52 12.2499 24.52 12.8399 24.28C13.0799 24.2 13.9099 23.68 13.6699 23.37C13.5499 23.25 13.4699 23.25 13.3899 23.25" fill="#1A1A1A"/>
<path d="M21.42 19.2601C21.42 17.9401 20.86 16.9101 19.63 16.3501C18.59 15.8701 17.52 15.8701 16.49 16.2701C14.86 16.9101 14.02 18.1401 13.9 19.8601C13.78 21.3401 14.26 22.6101 15.41 23.5701C16.45 24.4101 17.68 24.6101 18.95 24.3701C19.83 24.2101 20.58 23.7301 21.14 23.0101C21.14 23.0101 21.14 22.9701 21.18 22.9701C21.26 22.8101 21.14 22.6101 20.94 22.5701H20.86C20.66 22.5701 20.46 22.6501 20.26 22.6901C18.99 22.9301 17.83 22.4901 17.27 21.3301C17.03 20.8901 16.87 20.6101 16.67 19.7401H20.93C21.33 19.7401 21.41 19.6601 21.41 19.2601H21.42ZM18.83 18.5801C18.83 18.8601 18.67 19.0201 18.39 19.0201H16.68C16.68 18.3101 16.76 17.5901 17.16 16.9501C17.56 16.2701 18.19 16.3101 18.55 16.9901C18.83 17.5101 18.87 18.0201 18.83 18.5801Z" fill="#1A1A1A"/>
<path d="M29.77 24.0101C29.69 23.7301 29.57 23.6101 29.53 23.4901C29.49 23.2901 29.45 23.0501 29.45 22.8501C29.41 21.5001 29.41 20.1501 29.37 18.8001C29.33 17.5301 28.7 16.6601 27.51 16.3001C26.28 15.9401 25.09 15.9401 23.86 16.3801C23.38 16.5401 22.95 16.8201 22.71 17.2901C22.47 17.7301 22.51 18.2001 22.79 18.5601C23.19 19.0401 23.74 19.0401 24.26 18.9201C24.66 18.8401 24.89 18.4801 24.93 18.0101C24.97 17.7301 25.01 17.4501 25.05 17.1801C25.13 16.7801 25.37 16.5401 25.76 16.5401C26.12 16.5401 26.32 16.7401 26.39 17.1801C26.43 17.6601 26.43 18.1701 26.47 18.6501C26.55 19.4801 24.57 19.7201 24.05 19.9201C23.34 20.1601 22.7 20.5201 22.27 21.1501C21.52 22.2201 21.79 23.6901 22.86 24.2501C24.09 24.8901 25.91 24.6501 26.67 23.1401C26.91 23.7001 27.26 24.0901 27.82 24.2501C28.1 24.3301 28.41 24.3701 28.69 24.4101C29.01 24.4501 30.12 24.5701 29.76 24.0101H29.77ZM26.48 22.0201C26.48 22.4601 26.04 22.8101 25.61 22.7701C25.17 22.7301 24.9 22.4501 24.86 21.9801C24.82 21.6201 24.94 21.2701 25.14 20.9901C25.5 20.5101 25.93 20.2001 26.49 19.8801C26.49 20.5901 26.53 21.3101 26.49 22.0201H26.48Z" fill="#1A1A1A"/>
</svg>
